<?xml version="1.0" encoding="UTF-8" standalone="no"?>
<!DOCTYPE svg PUBLIC "-//W3C//DTD SVG 1.1//EN"
 "http://www.w3.org/Graphics/SVG/1.1/DTD/svg11.dtd">
<!-- Generated by graphviz version 2.47.0 (20210316.0004)
 -->
<!-- Title: dependencies Pages: 1 -->
<svg width="504pt" height="287pt"
 viewBox="0.00 0.00 504.00 287.00" xmlns="http://www.w3.org/2000/svg" xmlns:xlink="http://www.w3.org/1999/xlink">
<g id="graph0" class="graph" transform="scale(1 1) rotate(0) translate(4 283)">
<title>dependencies</title>
<polygon fill="white" stroke="transparent" points="-4,4 -4,-283 500,-283 500,4 -4,4"/>
<text text-anchor="start" x="227.01" y="-42.4" font-family="Times-12" font-weight="bold" font-size="14.00">Legend</text>
<polygon fill="#ffffb3" stroke="transparent" points="14,-10 14,-30 34,-30 34,-10 14,-10"/>
<text text-anchor="start" x="37.63" y="-15.4" font-family="Times-12" font-size="14.00"> &#160;Declarations</text>
<polygon fill="#8dd3c7" stroke="transparent" points="127,-10 127,-30 147,-30 147,-10 127,-10"/>
<text text-anchor="start" x="150.73" y="-15.4" font-family="Times-12" font-size="14.00"> &#160;Module</text>
<polygon fill="#80b1d3" stroke="transparent" points="213,-10 213,-30 233,-30 233,-10 213,-10"/>
<text text-anchor="start" x="236.78" y="-15.4" font-family="Times-12" font-size="14.00"> &#160;Bootstrap</text>
<polygon fill="#fdb462" stroke="transparent" points="310,-10 310,-30 330,-30 330,-10 310,-10"/>
<text text-anchor="start" x="333.67" y="-15.4" font-family="Times-12" font-size="14.00"> &#160;Providers</text>
<polygon fill="#fb8072" stroke="transparent" points="406,-10 406,-30 426,-30 426,-10 406,-10"/>
<text text-anchor="start" x="429.73" y="-15.4" font-family="Times-12" font-size="14.00"> &#160;Exports</text>
<g id="clust1" class="cluster">
<title>cluster_AppModule</title>
<polygon fill="none" stroke="black" stroke-dasharray="1,5" points="179,-146 179,-271 317,-271 317,-146 179,-146"/>
</g>
<g id="clust3" class="cluster">
<title>cluster_AppModule_imports</title>
<polygon fill="none" stroke="black" points="187,-154 187,-206 309,-206 309,-154 187,-154"/>
</g>
<g id="clust7" class="cluster">
<title>cluster_WeatherModule</title>
<polygon fill="none" stroke="black" stroke-dasharray="1,5" points="159,-70 159,-138 337,-138 337,-70 159,-70"/>
</g>
<g id="clust12" class="cluster">
<title>cluster_WeatherModule_providers</title>
<polygon fill="none" stroke="black" points="167,-78 167,-130 329,-130 329,-78 167,-78"/>
</g>
<!-- WeatherModule -->
<g id="node1" class="node">
<title>WeatherModule</title>
<polygon fill="#8dd3c7" stroke="black" points="301.46,-198 298.46,-202 277.46,-202 274.46,-198 194.54,-198 194.54,-162 301.46,-162 301.46,-198"/>
<text text-anchor="middle" x="248" y="-175.8" font-family="Times,serif" font-size="14.00">WeatherModule</text>
</g>
<!-- AppModule -->
<g id="node2" class="node">
<title>AppModule</title>
<polygon fill="#8dd3c7" stroke="black" points="289.66,-263 286.66,-267 265.66,-267 262.66,-263 206.34,-263 206.34,-227 289.66,-227 289.66,-263"/>
<text text-anchor="middle" x="248" y="-240.8" font-family="Times,serif" font-size="14.00">AppModule</text>
</g>
<!-- WeatherModule&#45;&gt;AppModule -->
<g id="edge1" class="edge">
<title>WeatherModule&#45;&gt;AppModule</title>
<path fill="none" stroke="black" d="M248,-198.11C248,-198.11 248,-216.99 248,-216.99"/>
<polygon fill="black" stroke="black" points="244.5,-216.99 248,-226.99 251.5,-216.99 244.5,-216.99"/>
</g>
<!-- WeatherService -->
<g id="node3" class="node">
<title>WeatherService</title>
<ellipse fill="#fdb462" stroke="black" cx="248" cy="-104" rx="72.89" ry="18"/>
<text text-anchor="middle" x="248" y="-99.8" font-family="Times,serif" font-size="14.00">WeatherService</text>
</g>
<!-- WeatherService&#45;&gt;WeatherModule -->
<g id="edge2" class="edge">
<title>WeatherService&#45;&gt;WeatherModule</title>
<path fill="none" stroke="black" d="M248,-122.01C248,-122.01 248,-151.85 248,-151.85"/>
<polygon fill="black" stroke="black" points="244.5,-151.85 248,-161.85 251.5,-151.85 244.5,-151.85"/>
</g>
</g>
</svg>
